Normalized EMG Linear Envelopes
nRows=165
nColumns=4

endheader
time	 med_gas_r	  soleus_r	 tib_ant_r	
7.43702	  0.076335	  0.078682	  0.023167	
7.49952	  0.071876	  0.072317	  0.022638	
7.56202	  0.083023	  0.073035	  0.022084	
7.62451	  0.136848	  0.090662	  0.023145	
7.68701	  0.255870	  0.138700	  0.028659	
7.7495	  0.445622	  0.228206	  0.041085	
7.812	  0.664748	  0.348765	  0.059873	
7.8745	  0.827764	  0.466779	  0.080186	
7.93699	  0.900242	  0.573710	  0.097040	
7.99949	  0.920464	  0.668532	  0.108445	
8.06198	  0.917727	  0.758285	  0.117405	
8.12448	  0.884802	  0.841661	  0.125218	
8.18698	  0.794766	  0.876991	  0.129466	
8.24947	  0.709883	  0.844087	  0.129137	
8.31197	  0.671478	  0.780182	  0.125798	
8.37446	  0.669950	  0.719401	  0.122168	
8.43696	  0.685212	  0.667181	  0.121843	
8.49946	  0.703390	  0.638397	  0.123442	
8.56195	  0.696177	  0.649265	  0.124666	
8.62445	  0.688176	  0.688941	  0.124680	
8.68694	  0.680611	  0.728935	  0.122634	
8.74944	  0.667315	  0.736957	  0.119966	
8.81194	  0.653696	  0.713352	  0.117255	
8.87443	  0.659416	  0.678476	  0.115533	
8.93693	  0.673776	  0.656791	  0.113652	
8.99942	  0.686768	  0.651838	  0.111831	
9.06192	  0.689663	  0.650798	  0.108187	
9.12442	  0.688057	  0.652031	  0.102296	
9.18691	  0.652424	  0.658309	  0.095548	
9.24941	  0.619743	  0.650964	  0.090780	
9.3119	  0.618310	  0.632384	  0.090625	
9.3744	  0.640543	  0.621183	  0.094261	
9.4369	  0.659276	  0.606387	  0.096633	
9.49939	  0.685060	  0.593008	  0.097158	
9.56189	  0.704642	  0.590129	  0.097342	
9.62438	  0.671859	  0.587592	  0.095104	
9.68688	  0.633754	  0.578937	  0.089391	
9.74938	  0.606237	  0.578162	  0.083822	
9.81187	  0.584212	  0.591710	  0.082347	
9.87437	  0.572652	  0.610691	  0.083491	
9.93686	  0.561436	  0.622453	  0.084761	
9.99936	  0.561329	  0.617318	  0.085402	
10.0619	  0.563916	  0.602018	  0.085241	
10.1244	  0.580055	  0.601485	  0.085136	
10.1868	  0.621723	  0.615693	  0.085189	
10.2493	  0.657323	  0.628447	  0.085711	
10.3118	  0.679784	  0.644900	  0.088145	
10.3743	  0.694096	  0.665362	  0.091336	
10.4368	  0.703927	  0.687839	  0.093082	
10.4993	  0.698883	  0.711068	  0.092212	
10.5618	  0.691401	  0.722079	  0.090355	
10.6243	  0.671981	  0.720547	  0.089169	
10.6868	  0.662936	  0.710328	  0.087755	
10.7493	  0.680714	  0.705219	  0.086227	
10.8118	  0.718282	  0.699177	  0.086608	
10.8743	  0.780447	  0.683662	  0.091629	
10.9368	  0.815232	  0.672029	  0.098656	
10.9993	  0.818212	  0.665317	  0.102622	
11.0618	  0.789168	  0.669029	  0.103398	
11.1243	  0.718978	  0.665202	  0.102718	
11.1868	  0.642044	  0.661106	  0.101680	
11.2493	  0.586396	  0.667502	  0.100491	
11.3118	  0.540412	  0.660664	  0.097749	
11.3743	  0.515353	  0.641512	  0.093061	
11.4368	  0.526763	  0.632482	  0.087427	
11.4993	  0.534232	  0.622327	  0.082367	
11.5618	  0.542707	  0.604672	  0.080386	
11.6243	  0.546089	  0.594176	  0.080674	
11.6868	  0.536807	  0.608436	  0.080276	
11.7492	  0.543068	  0.639324	  0.078816	
11.8117	  0.567631	  0.670806	  0.076992	
11.8742	  0.612155	  0.699501	  0.076689	
11.9367	  0.624027	  0.708464	  0.076677	
11.9992	  0.583435	  0.690062	  0.075545	
12.0617	  0.537939	  0.646710	  0.073889	
12.1242	  0.491759	  0.592045	  0.071646	
12.1867	  0.466667	  0.551557	  0.070303	
12.2492	  0.454225	  0.542816	  0.070741	
12.3117	  0.450286	  0.555486	  0.071989	
12.3742	  0.457895	  0.579953	  0.073149	
12.4367	  0.480721	  0.618648	  0.074120	
12.4992	  0.522886	  0.659370	  0.073774	
12.5617	  0.589336	  0.683465	  0.071878	
12.6242	  0.637390	  0.681148	  0.069397	
12.6867	  0.635646	  0.672229	  0.066961	
12.7492	  0.619043	  0.677874	  0.067526	
12.8117	  0.618651	  0.695947	  0.072507	
12.8742	  0.643376	  0.712976	  0.078524	
12.9367	  0.670119	  0.714162	  0.081244	
12.9992	  0.677644	  0.706959	  0.081657	
13.0617	  0.669607	  0.694537	  0.082004	
13.1242	  0.643313	  0.671478	  0.080905	
13.1867	  0.604562	  0.649874	  0.078313	
13.2492	  0.559791	  0.643574	  0.075183	
13.3116	  0.504134	  0.654827	  0.071385	
13.3741	  0.466799	  0.669520	  0.069195	
13.4366	  0.454302	  0.675953	  0.069779	
13.4991	  0.457197	  0.680842	  0.071847	
13.5616	  0.456786	  0.672145	  0.074229	
13.6241	  0.447337	  0.642868	  0.076186	
13.6866	  0.439952	  0.617126	  0.077132	
13.7491	  0.467809	  0.614289	  0.078667	
13.8116	  0.535789	  0.632095	  0.079871	
13.8741	  0.613150	  0.671024	  0.079529	
13.9366	  0.663035	  0.702562	  0.075657	
13.9991	  0.667743	  0.697772	  0.069566	
14.0616	  0.640578	  0.643478	  0.064387	
14.1241	  0.592200	  0.559441	  0.061415	
14.1866	  0.541526	  0.509077	  0.061408	
14.2491	  0.506233	  0.502516	  0.064754	
14.3116	  0.497411	  0.522742	  0.069638	
14.3741	  0.497156	  0.544819	  0.073273	
14.4366	  0.498980	  0.545227	  0.073854	
14.4991	  0.507072	  0.522231	  0.072634	
14.5616	  0.528112	  0.499582	  0.071690	
14.6241	  0.548654	  0.491559	  0.071166	
14.6866	  0.570089	  0.498550	  0.072081	
14.7491	  0.583536	  0.515446	  0.074580	
14.8116	  0.577840	  0.529821	  0.076911	
14.874	  0.571399	  0.544617	  0.078725	
14.9365	  0.571674	  0.567726	  0.077824	
14.999	  0.583151	  0.586960	  0.074602	
15.0615	  0.595012	  0.597765	  0.071206	
15.124	  0.606529	  0.611541	  0.069106	
15.1865	  0.599664	  0.620927	  0.068457	
15.249	  0.580627	  0.617780	  0.068518	
15.3115	  0.551127	  0.598201	  0.068891	
15.374	  0.508113	  0.570580	  0.068217	
15.4365	  0.469897	  0.549336	  0.065864	
15.499	  0.461877	  0.532843	  0.063690	
15.5615	  0.476413	  0.519238	  0.062849	
15.624	  0.489499	  0.509755	  0.063481	
15.6865	  0.503840	  0.509823	  0.064496	
15.749	  0.519132	  0.503482	  0.065170	
15.8115	  0.527659	  0.488204	  0.063231	
15.874	  0.524775	  0.478846	  0.060739	
15.9365	  0.519278	  0.479710	  0.060602	
15.999	  0.515355	  0.488168	  0.063298	
16.0615	  0.508674	  0.501826	  0.067758	
16.124	  0.507933	  0.515502	  0.070571	
16.1865	  0.516705	  0.527865	  0.070901	
16.249	  0.510443	  0.527735	  0.068065	
16.3115	  0.484420	  0.503642	  0.060596	
16.374	  0.444331	  0.479324	  0.052930	
16.4364	  0.408688	  0.466042	  0.048437	
16.4989	  0.378665	  0.443952	  0.046817	
16.5614	  0.359530	  0.396177	  0.049240	
16.6239	  0.354631	  0.346331	  0.054597	
16.6864	  0.346590	  0.295556	  0.058451	
16.7489	  0.324276	  0.252045	  0.060221	
16.8114	  0.300597	  0.232851	  0.060033	
16.8739	  0.291127	  0.220470	  0.059179	
16.9364	  0.292148	  0.205900	  0.058704	
16.9989	  0.282928	  0.188657	  0.055465	
17.0614	  0.261723	  0.162450	  0.050255	
17.1239	  0.240574	  0.140123	  0.045952	
17.1864	  0.219252	  0.128580	  0.042662	
17.2489	  0.194886	  0.125169	  0.041125	
17.3114	  0.173210	  0.122110	  0.042134	
17.3739	  0.162283	  0.115347	  0.043072	
17.4364	  0.162185	  0.107474	  0.042174	
17.4989	  0.166360	  0.100929	  0.041429	
17.5614	  0.171938	  0.096644	  0.041300	
17.6239	  0.182558	  0.093928	  0.040470	
17.6864	  0.198574	  0.093507	  0.039895	
